# xmcd
# 
# Track frame offsets:
#     150
#     12660
#     26660
#     41212
#     58095
#     71380
#     85110
#     97497
#     107270
#     118280
#     128445
#     139305
#     152757
#     159662
#     171652
#     182550
#     195642
#     207890
# 
# Disc length: 2886
# 
# Revision: 0
# Processed by: cddbd v1.5.2PL0 Copyright (c) Steve Scherf et al.
# Submitted via: fre:ac v1.0.31
# 
DISCID=060b4412
DTITLE=Frank Sinatra - Selection of Frank Sinatra - CD 1 (Swing)
DYEAR=1997
DGENRE=Swing
TTITLE0=Anything Goes
TTITLE1=Cheek To Cheek
TTITLE2=The Lady Is A Tramp
TTITLE3=I've Got You Under My Skin
TTITLE4=You Make Me Feel So Young
TTITLE5=Learnin' The Blues
TTITLE6=How Could You Do A Thing Like That To Me
TTITLE7=All Of Me
TTITLE8=Get Happy
TTITLE9=Taking A Chance On Love
TTITLE10=Jeepers Creepers
TTITLE11=The Tender Trap
TTITLE12=Should I
TTITLE13=Something's Gotta Give
TTITLE14=Just In Time
TTITLE15=Brazil
TTITLE16=On The Sunny Side Of The Street
TTITLE17=Lover
EXTD=
EXTT0=
EXTT1=
EXTT2=
EXTT3=
EXTT4=
EXTT5=
EXTT6=
EXTT7=
EXTT8=
EXTT9=
EXTT10=
EXTT11=
EXTT12=
EXTT13=
EXTT14=
EXTT15=
EXTT16=
EXTT17=
PLAYORDER=
